# xmcd CD database file
#
# Track frame offsets:
#	150
#	6079
#	43105
#	57666
#	85239
#	102634
#	119999
#	139885
#	161976
#	195203
#	228093
#
# Disc length: 3177 seconds
#
# Revision: 0
# Processed by: cddbd v1.5.1PL0 Copyright (c) Steve Scherf et al.
# Submitted via: CDex 1.51
#
DISCID=9c0c670b
DTITLE=Marco Di Marco feat. Nathan Haines - My London Friends
DYEAR=2004
DGENRE=Jazz
TTITLE0=Interlude At Dawn
TTITLE1=Brazilian Waltz
TTITLE2=Walking In St. James' Park
TTITLE3=Up West
TTITLE4=Repeat After Me
TTITLE5=Solaria
TTITLE6=Take Off
TTITLE7=Jumpy
TTITLE8=Winding Dance
TTITLE9=Soft Rain, Gentle Breeze
TTITLE10=The Twilight Interlude
EXTD=YEAR: 2004
EXTT0=
EXTT1=
EXTT2=
EXTT3=
EXTT4=
EXTT5=
EXTT6=
EXTT7=
EXTT8=
EXTT9=
EXTT10=
PLAYORDER=
